<svg width="255" height="109" viewBox="0 0 255 109" fill="none" xmlns="http://www.w3.org/2000/svg">
<path d="M59.7004 104.278C81.0036 104.74 102.336 104.417 124.608 104.417C143.5 104.417 171.043 108.582 173.922 108.23C186.55 106.661 199.438 105.994 211.816 103.677C240.317 98.3387 255.977 82.9483 254.451 62.5573C253.185 45.8104 244.404 31.1165 233.033 17.0092C223.178 4.77901 209.571 -0.280255 190.945 0.255C167.799 0.914904 144.616 0.628946 121.451 0.628946C94.9274 0.628946 68.2985 -0.786182 41.919 0.628946C13.7931 2.13939 -1.69482 16.6573 0.147618 37.9795C1.46227 53.2526 4.59057 68.4744 7.82442 83.6082C9.8108 92.8615 17.478 99.2699 29.8089 101.206C39.6448 102.753 49.7014 104.065 59.7004 104.278Z" fill="black"/>
<path d="M42.1398 94.3275C66.6384 96.1532 106 94.3275 148 98.5C190 102.673 209.129 100.289 221.758 95.7646C240.854 88.9089 249.72 73.7018 244.356 58.1867C240.528 47.0783 233.858 36.4539 227.391 25.998C220.693 15.1609 208.64 10.7836 192.941 11.3848C172.53 12.1914 152.081 12.9026 131.651 12.8513C114.273 12.8073 96.8754 10.9962 79.5066 11.1722C64.3737 11.3262 49.0009 12.206 34.2135 14.5304C19.7427 16.8107 13.5629 23.7104 14.4457 34.8628C15.5589 48.9994 17.6988 63.1066 20.069 77.1553C22.1897 89.9281 25.2317 93.0663 42.1398 94.3275Z" fill="white"/>
</svg>
