<svg width="172" height="119" viewBox="0 0 172 119" fill="none" xmlns="http://www.w3.org/2000/svg">
<path d="M84.0824 92.1875C69.0536 92.1875 54.6593 92.4723 40.2844 92.0645C33.5373 91.8768 26.7514 90.718 20.1143 89.3521C11.7937 87.6431 6.62009 81.9853 5.27974 73.8157C3.09761 60.4545 0.986706 47.0155 0.0996088 33.5312C-1.14362 14.7063 9.30728 1.88882 28.286 0.555281C46.0862 -0.694102 64.0548 0.555281 81.9521 0.555281C97.5831 0.555281 113.227 0.807747 128.845 0.225133C141.413 -0.247431 150.595 4.21928 157.245 15.0171C164.918 27.472 170.843 40.4449 171.698 55.2304C172.727 73.2331 162.16 86.821 142.929 91.5337C134.576 93.5793 125.88 94.1684 117.358 95.5537C115.416 95.8644 113.188 96.2528 111.79 97.4375C98.1918 108.973 81.8679 114.404 65.0584 118.729C63.3878 119.156 61.2057 117.589 59.2631 116.955C60.3251 115.207 60.9726 112.838 62.5007 111.815C70.7695 106.377 78.3131 100.273 84.0824 92.1875ZM117.812 89.9477C119.812 90.951 121.004 92.0969 121.865 91.8897C131.183 89.6693 141.07 88.5559 149.592 84.5617C162.477 78.509 168.46 65.083 164.841 51.3851C162.251 41.5778 157.757 32.1977 153.393 22.9665C148.86 13.3987 140.74 9.53401 130.147 10.0648C116.374 10.764 102.575 11.3919 88.7899 11.3595C77.0634 11.3207 65.3239 9.72174 53.6039 9.8771C43.3925 10.013 33.0193 10.7899 23.0411 12.842C13.2766 14.8552 9.10657 20.9468 9.70228 30.7929C10.4534 43.2738 11.8974 55.7288 13.4967 68.132C14.9472 79.4412 16.9998 82.1795 28.3896 83.2929C44.9466 84.9048 61.659 84.9048 78.2483 86.0571C84.6781 86.5038 89.7094 86.1995 90.2792 78.2436C90.5886 78.1667 90.9058 78.1254 91.2245 78.1206C92.3836 91.4495 85.2674 100.94 75.5028 110.384C92.7268 106.669 107.089 100.584 117.812 89.9477Z" fill="white"/>
<path d="M117.811 89.9477C107.089 100.584 92.7266 106.669 75.5481 110.372C85.3126 100.927 92.4288 91.4366 91.2697 78.1077C90.9509 78.1124 90.6337 78.1537 90.3243 78.2306C89.7545 86.1866 84.7233 86.4908 78.2935 86.0441C61.6783 84.8919 44.9659 84.8919 28.4348 83.28C17.0256 82.1665 14.973 79.3959 13.542 68.1191C11.9426 55.7159 10.4987 43.2609 9.74754 30.78C9.15183 20.9338 13.3218 14.8423 23.0864 12.829C33.0646 10.7769 43.4378 10.0001 53.6491 9.86414C65.3691 9.70878 77.1086 11.3077 88.8351 11.3466C102.621 11.3919 116.419 10.764 130.192 10.0519C140.785 9.52105 148.918 13.3857 153.438 22.9535C157.802 32.1847 162.302 41.5648 164.886 51.3721C168.505 65.07 162.522 78.4961 149.637 84.5488C141.115 88.5429 131.228 89.6564 121.91 91.8768C121.004 92.0969 119.812 90.951 117.811 89.9477Z" fill="black"/>
<circle r="6.80458" transform="matrix(-1 0 0 1 119.822 49.8925)" fill="white"/>
<circle r="6.80458" transform="matrix(-1 0 0 1 85.7992 49.8925)" fill="white"/>
<circle r="6.80458" transform="matrix(-1 0 0 1 51.7762 49.8925)" fill="white"/>
</svg>
