<svg width="110" height="76" viewBox="0 0 110 76" fill="none" xmlns="http://www.w3.org/2000/svg">
<path d="M53.649 58.8204C44.0598 58.8204 34.8755 59.0021 25.7036 58.7419C21.3986 58.6221 17.0688 57.8828 12.834 57.0113C7.52502 55.9208 4.22396 52.3109 3.36875 47.0983C1.97643 38.5731 0.629569 29.9983 0.0635556 21.3947C-0.72969 9.3834 5.93853 1.20516 18.0479 0.354298C29.4054 -0.442873 40.8703 0.354298 52.2897 0.354298C62.2631 0.354298 72.2448 0.515385 82.2099 0.143647C90.2291 -0.157874 96.0876 2.69212 100.331 9.58166C105.226 17.5286 109.007 25.8059 109.552 35.2398C110.209 46.7265 103.466 55.3963 91.1959 58.4032C85.8663 59.7084 80.3177 60.0843 74.8807 60.9682C73.6412 61.1665 72.22 61.4143 71.3276 62.1702C62.6515 69.5306 52.236 72.996 41.5106 75.7551C40.4447 76.0277 39.0524 75.0282 37.813 74.6234C38.4905 73.5082 38.9037 71.9964 39.8787 71.3438C45.1546 67.8743 49.9678 63.9793 53.649 58.8204ZM75.1699 57.3913C76.4465 58.0315 77.2067 58.7626 77.7562 58.6304C83.7014 57.2137 90.0102 56.5032 95.4472 53.9548C103.669 50.0928 107.486 41.5263 105.177 32.7864C103.524 26.5288 100.657 20.5438 97.8724 14.6538C94.9804 8.54905 89.7995 6.08319 83.0404 6.42189C74.2527 6.86797 65.4485 7.26862 56.6525 7.24797C49.1704 7.22319 41.68 6.20297 34.202 6.3021C27.6867 6.38884 21.068 6.88449 14.7014 8.19384C8.47114 9.4784 5.81046 13.3651 6.19056 19.6475C6.66981 27.6109 7.59113 35.5579 8.6116 43.4718C9.53706 50.6876 10.8467 52.4348 18.114 53.1452C28.6782 54.1737 39.3416 54.1737 49.9265 54.9089C54.029 55.1939 57.2392 54.9998 57.6028 49.9235C57.8002 49.8744 58.0026 49.848 58.206 49.845C58.9455 58.3495 54.405 64.4047 48.1747 70.431C59.1645 68.0602 68.3281 64.1776 75.1699 57.3913Z" fill="black"/>
<path d="M75.1699 57.3913C68.3282 64.1776 59.1646 68.0602 48.2037 70.4228C54.434 64.3965 58.9745 58.3413 58.235 49.8368C58.0316 49.8398 57.8292 49.8662 57.6318 49.9153C57.2682 54.9916 54.058 55.1857 49.9555 54.9007C39.3541 54.1655 28.6907 54.1655 18.1431 53.137C10.8634 52.4266 9.5537 50.6587 8.64064 43.4635C7.62017 35.5497 6.69884 27.6027 6.21959 19.6393C5.83949 13.3569 8.50017 9.47018 14.7304 8.18562C21.0971 6.87628 27.7157 6.38063 34.2311 6.29389C41.709 6.19476 49.1994 7.21497 56.6815 7.23976C65.4775 7.26867 74.2816 6.86802 83.0693 6.41367C89.8284 6.07498 95.0176 8.54084 97.9013 14.6456C100.686 20.5356 103.557 26.5206 105.206 32.7781C107.515 41.5181 103.698 50.0846 95.4762 53.9466C90.0391 56.495 83.7303 57.2055 77.7851 58.6222C77.2067 58.7626 76.4465 58.0315 75.1699 57.3913Z" fill="white"/>
<circle cx="33.1432" cy="31.8339" r="4.34167" fill="black"/>
<circle cx="54.8514" cy="31.8339" r="4.34167" fill="black"/>
<circle cx="76.5599" cy="31.8339" r="4.34167" fill="black"/>
</svg>
