<svg width="191" height="187" viewBox="0 0 191 187" fill="none" xmlns="http://www.w3.org/2000/svg">
<path d="M106.836 151.688C84.2534 155.265 64.5782 151.866 46.669 140.712C26.9143 128.393 13.9051 111.45 15.3802 86.9233C16.2836 71.3676 24.0993 58.4805 35.055 47.7659C51.2492 31.9197 70.3384 21.6392 93.0495 18.1647C124.933 13.2837 158.771 32.47 170.844 62.4486C177.953 80.0992 179.58 97.6092 171.583 115.375C164.396 131.353 151.224 140.415 135.67 146.931C132.751 148.162 130.176 150.086 128.167 152.536C121.032 161.621 111.892 168.014 101.696 172.927C99.7627 173.858 96.9296 172.917 94.5127 172.841C95.3006 170.772 95.7943 168.517 96.9347 166.666C99.7652 162.028 102.91 157.574 106.836 151.688ZM134.479 142.254C152.139 137.122 166.602 122.128 170.655 105.37C180.205 65.866 147.92 23.9254 107.152 23.961C75.6681 23.987 50.9402 38.4045 32.8076 63.6619C20.0175 81.4768 20.986 100.921 34.7055 118.105C51.1803 138.745 74.0462 145.686 99.2431 146.649C109.599 147.029 108.29 148.346 110.848 137.17C111.007 136.722 111.22 136.294 111.481 135.896L113.095 136.224C111.896 143.806 110.697 151.387 109.257 160.496C119.087 151.101 128.28 142.333 138.035 133.013C136.775 136.288 135.77 138.901 134.479 142.254Z" fill="white"/>
<path d="M134.479 142.255C135.77 138.902 136.774 136.288 138.024 133.031C128.27 142.351 119.072 151.138 109.246 160.514C110.662 151.399 111.885 143.824 113.084 136.242L111.47 135.914C111.209 136.312 110.997 136.74 110.837 137.188C108.291 148.367 109.584 147.065 99.2324 146.667C74.0398 145.685 51.1739 138.744 34.6948 118.123C20.9753 100.939 20.0068 81.4946 32.7969 63.6797C50.9358 38.4237 75.6694 23.9811 107.141 23.9788C147.909 23.9432 180.194 65.8838 170.645 105.388C166.602 122.128 152.114 137.117 134.479 142.255Z" fill="black"/>
<path d="M134.479 142.255C135.77 138.902 136.774 136.288 138.024 133.031C128.27 142.351 119.072 151.138 109.246 160.514C110.662 151.399 111.885 143.824 113.084 136.242L111.47 135.914C111.209 136.312 110.997 136.74 110.837 137.188C108.291 148.367 109.584 147.065 99.2324 146.667C74.0398 145.685 51.1739 138.744 34.6948 118.123C20.9753 100.939 20.0068 81.4946 32.7969 63.6797C50.9358 38.4237 75.6694 23.9811 107.141 23.9788C147.909 23.9432 180.194 65.8838 170.645 105.388C166.602 122.128 152.114 137.117 134.479 142.255Z" fill="black"/>
<circle cx="65.0009" cy="88.8788" r="6.63275" fill="white"/>
<circle cx="98.1647" cy="88.8788" r="6.63275" fill="white"/>
<circle cx="131.328" cy="88.8788" r="6.63275" fill="white"/>
</svg>
