<svg width="108" height="106" viewBox="0 0 108 106" fill="none" xmlns="http://www.w3.org/2000/svg">
<path d="M60.4098 85.7714C47.6406 87.7936 36.5154 85.8719 26.3887 79.5649C15.2185 72.599 7.86253 63.0186 8.69657 49.1504C9.20742 40.3545 13.6268 33.0675 19.8216 27.009C28.9785 18.0488 39.7725 12.2357 52.6143 10.2712C70.6429 7.51122 89.7763 18.36 96.6028 35.3113C100.623 45.2917 101.542 55.1927 97.0208 65.2381C92.9569 74.2728 85.5089 79.3972 76.7141 83.0813C75.0634 83.7775 73.6072 84.8653 72.4714 86.2506C68.4371 91.3879 63.2686 95.0027 57.5037 97.7807C56.4103 98.3074 54.8083 97.7748 53.4417 97.7321C53.8872 96.562 54.1663 95.2868 54.8112 94.2404C56.4116 91.6179 58.1899 89.0993 60.4098 85.7714ZM76.0406 80.437C86.0262 77.5349 94.2043 69.0566 96.4961 59.5811C101.896 37.2436 83.6404 13.5285 60.5886 13.5486C42.7861 13.5633 28.8038 21.7156 18.5508 35.9973C11.3187 46.0707 11.8663 57.0653 19.624 66.7818C28.9396 78.4528 41.869 82.3776 56.1165 82.9219C61.9721 83.1365 61.2318 83.8816 62.6781 77.5622C62.7685 77.3088 62.8887 77.067 63.0361 76.8419L63.9487 77.0274C63.271 81.3143 62.5933 85.6011 61.7786 90.7518C67.3372 85.4396 72.5355 80.4816 78.0509 75.2118C77.3384 77.0632 76.7707 78.5411 76.0406 80.437Z" fill="black"/>
<path d="M76.0405 80.4377C76.7706 78.5418 77.3384 77.0639 78.0449 75.2224C72.5295 80.4922 67.3288 85.4608 61.7725 90.7623C62.5731 85.6085 63.265 81.3248 63.9427 77.0379L63.0301 76.8525C62.8827 77.0776 62.7625 77.3193 62.6721 77.5727C61.2328 83.8937 61.9636 83.1577 56.1105 82.9325C41.8654 82.3775 28.936 78.4528 19.618 66.7924C11.8604 57.0758 11.3127 46.0812 18.5449 36.0078C28.8014 21.727 42.7869 13.5605 60.5826 13.5592C83.6344 13.539 101.89 37.2541 96.4901 59.5917C94.2042 69.0574 86.012 77.5324 76.0405 80.4377Z" fill="white"/>
<path d="M76.0405 80.4377C76.7706 78.5418 77.3384 77.0639 78.0449 75.2224C72.5295 80.4922 67.3288 85.4608 61.7725 90.7623C62.5731 85.6085 63.265 81.3248 63.9427 77.0379L63.0301 76.8525C62.8827 77.0776 62.7625 77.3193 62.6721 77.5727C61.2328 83.8937 61.9636 83.1577 56.1105 82.9325C41.8654 82.3775 28.936 78.4528 19.618 66.7924C11.8604 57.0758 11.3127 46.0812 18.5449 36.0078C28.8014 21.727 42.7869 13.5605 60.5826 13.5592C83.6344 13.539 101.89 37.2541 96.4901 59.5917C94.2042 69.0574 86.012 77.5324 76.0405 80.4377Z" fill="white"/>
<circle cx="36.7546" cy="50.2563" r="3.75045" fill="black"/>
<circle cx="55.5068" cy="50.2563" r="3.75045" fill="black"/>
<circle cx="74.2592" cy="50.2563" r="3.75045" fill="black"/>
</svg>
