<svg width="37" height="51" viewBox="0 0 37 51" fill="none" xmlns="http://www.w3.org/2000/svg">
<g clip-path="url(#clip0_107:498)">
<path d="M24.2591 50.9963C22.7222 50.8929 21.5388 50.8048 20.3516 50.7359C19.5832 50.6899 18.8147 50.6746 18.0463 50.644L13.9198 50.4908C12.9977 50.4563 12.0756 50.4372 11.1573 50.3989C10.3351 50.3682 9.51289 50.3606 8.69451 50.2763C7.73781 50.1768 7.27675 49.7172 7.2537 48.7215C7.2537 48.0513 7.32284 47.3773 7.33437 46.7071C7.36895 44.7922 7.41507 42.8774 7.40355 40.9319C7.39955 39.8028 7.48046 38.675 7.64561 37.5579C7.78392 36.5699 7.8915 35.5818 8.02982 34.5938C8.16814 33.6057 8.29493 32.5908 8.41404 31.5913C8.52162 30.7219 8.62534 29.8526 8.73292 28.9832C8.74616 28.9187 8.76952 28.8567 8.8021 28.7994C9.35921 27.5701 9.92401 26.3408 10.4773 25.1114C10.5467 25.0008 10.5887 24.8752 10.5996 24.7452C10.6106 24.6151 10.5903 24.4844 10.5403 24.3637C10.4903 24.2431 10.4121 24.1361 10.3123 24.0517C10.2124 23.9672 10.0938 23.9078 9.96624 23.8783C9.47672 23.7275 8.97557 23.6173 8.46783 23.5489C7.47656 23.3881 6.47759 23.2579 5.48247 23.12L2.53167 22.7026C1.99761 22.626 1.45969 22.5609 0.933317 22.4575C0.268624 22.3234 -0.0464034 21.9251 0.00354467 21.3354C0.0188539 21.15 0.0457868 20.9659 0.084215 20.7839L1.67488 13.2202C2.05909 11.3054 2.4779 9.39056 2.88901 7.47571C2.96723 7.07131 3.15449 6.69577 3.43067 6.38945C3.70686 6.08312 4.06151 5.85757 4.4566 5.73702C7.53032 4.64172 10.6041 3.53113 13.6509 2.42818C15.6604 1.70437 17.6736 0.984366 19.6831 0.252895C20.2013 0.0543056 20.7572 -0.0280447 21.311 0.011669C21.8648 0.0513827 22.403 0.212199 22.8874 0.48269L33.7338 6.20425L34.7251 6.72508C35.2284 6.96642 35.6535 7.34397 35.9517 7.81462C36.25 8.28527 36.4094 8.83005 36.4119 9.38672C36.4733 10.6161 36.4925 11.8492 36.5463 13.0824C36.6116 14.6142 36.6962 16.127 36.7692 17.6474C36.8153 18.578 36.8537 19.5086 36.9036 20.4392C36.9767 20.9644 36.9998 21.4952 36.9728 22.0247C36.9959 22.3119 36.3965 23.6025 36.2582 23.8706C35.701 24.9238 35.824 24.7591 35.2323 25.7855C33.9413 28.0182 32.4929 30.1475 31.029 32.2653C30.7101 32.7249 30.3912 33.1806 30.0569 33.6287C29.5839 34.3062 29.1968 35.0394 28.9043 35.8116C28.317 37.2809 27.8731 38.8032 27.5787 40.3574C27.3482 41.4527 27.0869 42.5442 26.8564 43.6395C26.5414 45.1331 26.2455 46.6305 25.9343 48.124C25.819 48.6832 25.7153 49.2462 25.5501 49.7938C25.3349 50.7129 24.8623 51.0308 24.2591 50.9963ZM33.6416 16.6938C33.5725 16.0006 33.5379 15.2998 33.438 14.6104C33.2801 13.3652 32.8096 12.1797 32.0702 11.1637C30.4276 8.92881 28.1229 7.26388 25.4809 6.4034C23.1756 5.63746 20.7896 5.48043 18.3806 5.54936C18.0664 5.53392 17.7515 5.54546 17.4393 5.58384C16.3508 5.7804 15.2812 6.06998 14.2426 6.44936C11.2466 7.51937 8.75422 9.65716 7.24601 12.4505C6.70493 13.3679 6.31572 14.3662 6.09336 15.407C5.99854 15.8041 6.03788 16.2213 6.20531 16.5939C6.37274 16.9665 6.65891 17.2735 7.01933 17.4674C7.34695 17.6698 7.70127 17.8258 8.07208 17.9308C9.79721 18.3903 11.53 18.8269 13.2552 19.2558C13.528 19.3208 13.8097 19.3402 14.0889 19.3133C14.3907 19.282 14.6777 19.1672 14.9174 18.9817C15.1571 18.7963 15.3399 18.5476 15.4452 18.2639C15.6283 17.8378 15.7661 17.3937 15.8563 16.9389C16.007 16.2074 16.4186 15.5552 17.0149 15.1031C17.6112 14.651 18.3516 14.4297 19.0991 14.4802C19.6173 14.5097 20.1318 14.5866 20.6359 14.71C21.1598 14.8303 21.6437 15.083 22.0412 15.4438C22.4386 15.8045 22.7362 16.2612 22.9053 16.7699C23.0744 17.2785 23.1092 17.8219 23.0065 18.3479C22.9037 18.8738 22.6669 19.3646 22.3188 19.7728C21.8005 20.3277 21.2278 20.8293 20.6091 21.2702C19.9175 21.7911 19.1721 22.243 18.4498 22.7179C16.547 23.9523 15.1134 25.7857 14.3771 27.9262C13.916 29.2537 13.6279 30.6348 13.5202 32.0355C13.4774 32.3322 13.4671 32.6327 13.4895 32.9317C13.5371 33.2452 13.7063 33.5277 13.9606 33.7182C14.215 33.9087 14.5342 33.9921 14.8497 33.9504C15.3621 33.9292 15.8753 33.9394 16.3865 33.981C17.6929 34.0997 18.9953 34.2835 20.3055 34.364C21.7924 34.4712 22.9067 33.9082 23.4023 32.3496C23.5146 31.9605 23.598 31.5636 23.652 31.1623C23.7246 30.6681 23.8985 30.1941 24.163 29.7698C24.4274 29.3454 24.7766 28.9799 25.1889 28.696C26.1327 28.055 27.1332 27.5012 28.1781 27.0416C29.4583 26.4656 30.552 25.5452 31.3363 24.3838C32.8369 22.0976 33.6379 19.4257 33.6416 16.6938ZM20.5053 47.3313C21.2737 47.3313 21.7694 47.1245 22.0422 46.5118C22.1325 46.3122 22.1933 46.1006 22.2227 45.8837C22.338 44.7935 22.4456 43.702 22.5455 42.6093C22.63 41.6902 22.703 40.771 22.7799 39.8481C22.8266 39.5068 22.8175 39.1602 22.753 38.8217C22.7198 38.5371 22.5894 38.2726 22.3838 38.0725C22.1781 37.8723 21.9096 37.7488 21.6234 37.7226C21.4262 37.6906 21.2274 37.6702 21.0278 37.6613C20.1019 37.6001 19.1759 37.5541 18.25 37.489C16.7746 37.3779 15.2953 37.2554 13.8199 37.1405C13.1745 37.0907 12.9747 37.2324 12.8709 37.872C12.7864 38.3851 12.7365 38.8983 12.6711 39.4038C12.5559 40.2923 12.4368 41.1808 12.3215 42.0846C12.1909 43.1148 12.0679 44.1412 11.9373 45.1675C11.822 45.9909 12.1832 46.4658 13.0016 46.5462C13.6778 46.6151 14.3502 46.6994 15.0264 46.7722L17.0742 46.9828L18.8032 47.1666L20.5053 47.3313Z" fill="white"/>
<path d="M33.6419 16.6931C33.6263 19.4354 32.8077 22.1134 31.2867 24.3984C30.5023 25.5598 29.4086 26.4802 28.1284 27.0563C27.0836 27.5159 26.083 28.0696 25.1392 28.7107C24.7269 28.9946 24.3777 29.3601 24.1133 29.7844C23.8489 30.2087 23.6749 30.6828 23.6023 31.177C23.5484 31.5783 23.4649 31.9751 23.3526 32.3642C22.857 33.9229 21.7428 34.4859 20.2558 34.3786C18.9457 34.2829 17.6432 34.0991 16.3369 33.9957C15.8257 33.9541 15.3124 33.9438 14.8 33.965C14.4846 34.0067 14.1653 33.9233 13.911 33.7328C13.6566 33.5423 13.4874 33.2599 13.4399 32.9463C13.4175 32.6474 13.4277 32.3469 13.4706 32.0502C13.5783 30.6495 13.8663 29.2684 14.3274 27.9409C15.0637 25.8004 16.4974 23.9669 18.4001 22.7325C19.1224 22.2576 19.8678 21.8057 20.5594 21.2849C21.1781 20.844 21.7509 20.3423 22.2691 19.7875C22.6173 19.3792 22.8541 18.8885 22.9568 18.3625C23.0596 17.8366 23.0247 17.2931 22.8556 16.7845C22.6866 16.2759 22.389 15.8192 21.9915 15.4584C21.5941 15.0976 21.1101 14.845 20.5863 14.7246C20.0821 14.6013 19.5677 14.5243 19.0494 14.4948C18.302 14.4444 17.5615 14.6657 16.9652 15.1178C16.369 15.5699 15.9574 16.2221 15.8066 16.9535C15.7164 17.4083 15.5786 17.8524 15.3955 18.2786C15.2902 18.5623 15.1074 18.8109 14.8677 18.9963C14.628 19.1818 14.3411 19.2967 14.0393 19.3279C13.7601 19.3548 13.4783 19.3354 13.2055 19.2705C11.4765 18.8416 9.74755 18.405 8.02242 17.9454C7.65161 17.8404 7.29729 17.6845 6.96967 17.482C6.60925 17.2882 6.32308 16.9811 6.15565 16.6086C5.98822 16.236 5.94887 15.8188 6.0437 15.4216C6.26606 14.3808 6.65526 13.3825 7.19635 12.4651C8.7101 9.67758 11.205 7.54682 14.2006 6.48314C15.2393 6.10376 16.3088 5.81419 17.3973 5.61763C17.7095 5.57924 18.0244 5.56772 18.3386 5.58317C20.7476 5.51424 23.1298 5.66742 25.4389 6.43719C28.0809 7.29766 30.3856 8.9626 32.0282 11.1975C32.7677 12.2135 33.2381 13.3989 33.3961 14.6442C33.5382 15.2991 33.5728 15.9999 33.6419 16.6931Z" fill="black"/>
<path d="M20.5056 47.3169L18.7804 47.1446L17.0515 46.9608L15.0036 46.7501C14.3273 46.6774 13.655 46.5931 12.9788 46.5242C12.1604 46.4437 11.7992 45.9689 11.9145 45.1455C12.0567 44.1191 12.1796 43.0928 12.2987 42.0626C12.414 41.1741 12.5331 40.2856 12.6484 39.3818C12.7137 38.8686 12.7636 38.3555 12.8481 37.8499C12.9519 37.2104 13.1517 37.084 13.7972 37.1184C15.2726 37.2333 16.7518 37.3559 18.2271 37.467C19.1531 37.5321 20.0791 37.578 21.0051 37.6393C21.2046 37.6481 21.4034 37.6686 21.6006 37.7006C21.8868 37.7268 22.1553 37.8503 22.3609 38.0504C22.5666 38.2506 22.697 38.5151 22.7302 38.7997C22.7947 39.1381 22.8038 39.4847 22.7571 39.826C22.6802 40.749 22.6072 41.6681 22.5227 42.5873C22.4228 43.68 22.3152 44.7715 22.2 45.8616C22.1705 46.0786 22.1097 46.2901 22.0194 46.4897C21.7696 47.1101 21.2663 47.3322 20.5056 47.3169Z" fill="black"/>
</g>
<defs>
<clipPath id="clip0_107:498">
<rect width="37" height="51" fill="white"/>
</clipPath>
</defs>
</svg>
