<svg width="226" height="108" viewBox="0 0 226 108" fill="none" xmlns="http://www.w3.org/2000/svg">
<path d="M0.418683 68.2389C3.4585 89.5001 22.953 105.914 45.5114 106.857C50.3102 107.714 67.7797 108.919 99.267 106.881C116.809 106.725 134.387 106.095 151.857 104.593C169.663 103.05 186.797 98.3229 202.567 89.5782C235.704 71.2058 229.535 28.9416 205.571 13.8005C193.285 6.03469 179.612 2.66533 165.488 1.31998C135.643 -1.52086 105.923 0.413078 76.4022 5.30797C55.6521 8.71938 35.8332 14.7794 19.0421 28.1308C6.18593 38.341 -1.98434 51.2299 0.418683 68.2389Z" fill="white"/>
<path d="M30.8466 100.193C42.7175 104.787 55.0811 104.721 67.5708 104.337C71.4722 104.425 82.4024 104.16 94.9111 102.397C115.781 100.547 134.969 99.1899 154.073 97.0398C170.294 95.2199 185.859 91.0277 200.223 82.8175C228.567 66.5653 222.337 27.7365 198.013 16.4512C192.01 13.5524 185.741 11.2394 179.293 9.54433C155.843 3.75673 131.988 5.14417 108.214 6.52685L107.966 6.54133C87.5398 7.72451 67.0721 9.80258 47.9681 17.6104C38.0376 21.6644 28.0411 26.7515 19.7326 33.4422C-5.5832 53.8386 0.484429 88.4332 30.8466 100.193Z" fill="black"/>
<circle cx="77.8074" cy="54.1531" r="6.84643" fill="white"/>
<circle cx="112.039" cy="54.1531" r="6.84643" fill="white"/>
<circle cx="146.272" cy="54.1531" r="6.84643" fill="white"/>
</svg>
