<svg width="143" height="69" viewBox="0 0 143 69" fill="none" xmlns="http://www.w3.org/2000/svg">
<path d="M0.265508 43.2738C2.19321 56.7566 14.5557 67.1658 28.8611 67.7638C31.9043 68.3072 42.9826 69.0709 62.9503 67.779C74.0746 67.68 85.2218 67.2801 96.3004 66.3279C107.592 65.3491 118.458 62.3516 128.458 56.8061C149.472 45.1553 145.56 18.3533 130.363 8.75158C122.572 3.82691 113.901 1.69022 104.945 0.837069C86.018 -0.964452 67.1714 0.261954 48.4506 3.36606C35.2919 5.5294 22.7237 9.3724 12.0756 17.8392C3.92282 24.314 -1.25837 32.4875 0.265508 43.2738Z" fill="black"/>
<path d="M19.5614 63.537C27.0894 66.4506 34.9297 66.4087 42.8501 66.165C45.3242 66.2208 52.2556 66.053 60.188 64.9348C73.4229 63.7617 85.591 62.9009 97.7059 61.5374C107.992 60.3833 117.863 57.7249 126.972 52.5184C144.946 42.212 140.995 17.5886 125.57 10.4321C121.763 8.59378 117.788 7.12698 113.699 6.05205C98.8283 2.38183 83.7004 3.26168 68.6243 4.13851L68.4665 4.14769C55.5135 4.89801 42.5339 6.21582 30.419 11.1671C24.1216 13.738 17.7823 16.964 12.5135 21.2069C-3.54061 34.1413 0.307188 56.0795 19.5614 63.537Z" fill="white"/>
<circle cx="49.3417" cy="34.3417" r="4.34167" fill="black"/>
<circle cx="71.0499" cy="34.3417" r="4.34167" fill="black"/>
<circle cx="92.7584" cy="34.3417" r="4.34167" fill="black"/>
</svg>
