<svg width="1096" height="262" viewBox="0 0 1096 262" fill="none" xmlns="http://www.w3.org/2000/svg">
<g clip-path="url(#clip0_80:1553)">
<path d="M971.434 94.3805L93.6159 13.4151C90.835 13.1586 88.0871 14.3673 86.3663 16.604L17.2831 106.397C14.3038 110.269 15.3709 115.788 19.5519 118.13L171.026 203.002C171.987 203.54 173.054 203.87 174.159 203.972L716.33 253.979C717.326 254.071 718.335 253.976 719.305 253.698L1046.45 159.989C1053.04 158.101 1054.59 149.463 1049.02 145.691L975.124 95.6946C974.031 94.9548 972.762 94.503 971.434 94.3805Z" fill="#F3F3F3"/>
<path d="M962.56 47H88.4972C85.7046 47 83.1141 48.4563 81.6626 50.8421L21.7446 149.333C19.2315 153.464 20.9292 158.863 25.3542 160.812L189.959 233.321C190.975 233.769 192.074 234 193.184 234H753H1014.23C1019.59 234 1023.44 228.822 1021.88 223.686L970.218 52.6862C969.198 49.3099 966.087 47 962.56 47Z" fill="black" stroke="white" stroke-width="5"/>
</g>
<defs>
<clipPath id="clip0_80:1553">
<rect width="1096" height="262" fill="white"/>
</clipPath>
</defs>
</svg>
