<svg width="251" height="127" viewBox="0 0 251 127" fill="none" xmlns="http://www.w3.org/2000/svg">
<path d="M84.1818 108.554C89.6414 112.132 95.1767 115.596 100.51 119.357C102.258 120.587 103.47 122.587 104.928 124.234C102.915 125.036 100.819 126.676 98.8817 126.506C84.3081 125.244 70.5613 121.382 58.3988 112.731C56.3475 111.267 53.3495 110.737 50.7049 110.567C38.0816 109.759 26.0894 107.197 15.8583 99.1457C1.20262 87.6173 -3.32915 70.1827 3.23497 52.7229C10.2283 34.0453 24.2843 22.826 41.8244 15.3171C71.7732 2.49516 103.489 -0.55258 135.552 0.469643C156.343 1.10065 177.14 3.23974 197.81 5.75744C214.416 7.78296 229.754 13.6008 241.184 26.8329C252.722 40.2038 253.284 58.0296 242.85 72.265C231.571 87.6615 215.71 95.814 197.533 98.0162C171.895 101.133 146.03 102.383 120.253 104.326C108.463 105.222 96.6537 105.891 84.8509 106.661C84.611 107.298 84.3964 107.923 84.1818 108.554ZM45.1065 94.7413C56.7262 108.213 72.1329 113.728 88.2402 118.398L74.9227 99.7199L76.5132 98.1929C78.4509 105.02 83.0647 104.85 88.5369 103.973C95.2525 102.894 102.094 102.477 108.898 102.017C133.331 100.357 157.795 99.1836 182.183 97.0571C198.877 95.5995 215.035 91.6747 228.889 81.2379C253.58 62.6044 251.497 33.1303 224.174 18.8886C217.961 15.6129 211.329 13.2012 204.463 11.7204C165.452 3.64519 125.325 2.48119 85.9112 8.28145C67.1972 10.9695 48.9692 15.7714 32.6031 25.8927C21.7218 32.6192 13.037 41.2639 8.61882 53.5306C3.97345 66.4346 4.37108 78.7707 13.6681 89.7312C21.9301 99.4297 39.041 106.036 49.3731 103.727C47.9593 100.744 46.5371 97.7491 45.1065 94.7413Z" fill="black"/>
<path d="M45.1064 94.7418C46.537 97.7327 47.9719 100.728 49.411 103.727C39.0788 106.037 21.9679 99.4301 13.706 89.7316C4.38366 78.79 3.98603 66.435 8.65665 53.531C13.0748 41.2644 21.7596 32.6196 32.6409 25.8932C49.007 15.7971 67.235 10.97 85.9491 8.28189C125.351 2.48611 165.464 3.65009 204.463 11.7208C211.316 13.2049 217.935 15.6165 224.136 18.889C251.459 33.1307 253.542 62.6048 228.851 81.2383C215.022 91.6751 198.864 95.5999 182.145 97.0575C157.757 99.184 133.293 100.358 108.86 102.017C102.056 102.478 95.2146 102.894 88.499 103.973C83.0268 104.85 78.4003 105.021 76.4753 98.1933L74.8848 99.7204L88.2023 118.398C72.1329 113.729 56.7262 108.214 45.1064 94.7418Z" fill="white"/>
<path d="M45.1064 94.7418C46.537 97.7327 47.9719 100.728 49.411 103.727C39.0788 106.037 21.9679 99.4301 13.706 89.7316C4.38366 78.79 3.98603 66.435 8.65665 53.531C13.0748 41.2644 21.7596 32.6196 32.6409 25.8932C49.007 15.7971 67.235 10.97 85.9491 8.28189C125.351 2.48611 165.464 3.65009 204.463 11.7208C211.316 13.2049 217.935 15.6165 224.136 18.889C251.459 33.1307 253.542 62.6048 228.851 81.2383C215.022 91.6751 198.864 95.5999 182.145 97.0575C157.757 99.184 133.293 100.358 108.86 102.017C102.056 102.478 95.2146 102.894 88.499 103.973C83.0268 104.85 78.4003 105.021 76.4753 98.1933L74.8848 99.7204L88.2023 118.398C72.1329 113.729 56.7262 108.214 45.1064 94.7418Z" fill="white"/>
</svg>
