<svg width="237" height="114" viewBox="0 0 237 114" fill="none" xmlns="http://www.w3.org/2000/svg">
<path d="M211.96 50.0981C218.764 48.0726 224.495 46.2174 230.32 44.722C232.359 44.1982 234.631 44.5768 236.802 44.539C236.304 46.7979 236.581 50.1296 235.187 51.1392C225.479 58.137 215.355 64.548 205.522 71.3944C203.117 73.0728 201.287 75.6095 199.286 77.8432C198.822 78.5009 198.51 79.2529 198.371 80.0454C193.321 99.1017 179.562 106.547 161.239 107.532C145.612 108.384 129.953 108.75 114.319 109.602C92.07 110.819 69.8404 112.536 47.5793 113.539C36.7674 114.025 25.8924 113.602 15.0616 113.179C7.94842 112.908 5.38593 110.302 4.20565 103.449C0.0210271 79.1494 -1.2224 54.7486 3.22731 30.3856C4.43284 23.779 6.9449 17.2229 9.924 11.1716C14.8786 1.07557 24.4787 -0.344178 34.2238 0.924135C45.528 2.40068 56.6049 5.73237 67.9217 6.96282C88.4598 9.18395 109.086 10.7488 129.706 12.0108C148.13 13.1845 166.598 13.6451 185.047 14.4654C187.655 14.5867 190.256 14.85 192.835 15.2542C205.181 17.1472 211.524 24.3154 211.928 36.8723C212.029 40.5006 211.96 44.1162 211.96 50.0981ZM192.911 48.4575C195.796 48.8298 198.693 49.5049 201.571 49.4418C202.833 49.4418 205.093 48.0347 205.232 47.0377C207.687 29.2119 204.07 21.438 187.041 20.441C163.196 19.0528 139.306 18.4597 115.499 16.655C95.7245 15.1658 76.0322 12.585 56.3461 10.1809C48.4061 9.2155 40.5986 6.39492 32.6901 6.23717C18.9938 5.93429 15.8064 7.19629 10.3658 22.8767C10.2655 23.2674 10.1876 23.6634 10.1323 24.063C4.17406 50.4767 4.31292 76.9914 9.30543 103.493C9.67151 105.424 12.8084 108.144 14.7713 108.251C26.997 108.882 39.2921 109.614 51.4988 109.015C88.605 107.185 125.686 104.781 162.773 102.566C179.89 101.537 188.31 93.5867 190.86 75.8493H175.756L216.302 56.0169C207.788 54.0545 199.545 54.3637 192.88 48.4575H192.911Z" fill="black"/>
<path d="M192.88 48.4569C199.545 54.3631 207.788 54.0539 216.271 56.0289L175.725 75.8613H190.828C188.304 93.5988 179.859 101.549 162.742 102.578C125.654 104.793 88.5733 107.197 51.4672 109.027C39.2605 109.626 26.9654 108.92 14.7398 108.263C12.7768 108.156 9.63992 105.436 9.27385 103.506C4.28134 77.0034 4.14248 50.5014 10.1007 24.075C10.156 23.6755 10.234 23.2794 10.3342 22.8887C15.7748 7.20834 18.9622 5.94633 32.6585 6.24921C40.567 6.41958 48.3745 9.22754 56.3146 10.193C76.0006 12.5971 95.6929 15.1779 115.467 16.6671C139.275 18.4591 163.164 19.0522 187.01 20.4531C204.051 21.45 207.655 29.224 205.2 47.0498C205.061 48.0468 202.82 49.4287 201.539 49.4539C198.661 49.5044 195.764 48.8292 192.88 48.4569Z" fill="white"/>
</svg>
