<svg width="238" height="132" viewBox="0 0 238 132" fill="none" xmlns="http://www.w3.org/2000/svg">
<path d="M81.1761 113.048C69.8972 113.048 59.2684 113.414 48.6712 112.978C24.9709 111.988 4.48965 94.7424 1.29596 72.4049C-1.2287 54.535 7.35514 40.9937 20.8621 30.2666C38.5031 16.2395 59.3253 9.87266 81.1257 6.28857C112.141 1.1459 143.365 -0.885925 174.721 2.09871C189.56 3.51216 203.925 7.05208 216.832 15.2109C242.01 31.1185 248.492 75.5221 213.677 94.8244C197.108 104.012 179.108 108.978 160.4 110.599C142.046 112.177 123.578 112.84 105.148 113.004C98.7604 113.067 94.4748 114.644 91.3947 120.058C89.7095 123.018 88.0622 126.065 85.8847 128.646C84.717 130.041 82.47 130.539 80.7028 131.429C80.1221 129.706 78.9292 127.927 79.0681 126.267C79.4152 122.04 80.343 117.913 81.1761 113.048ZM85.3986 115.471L107.881 94.6477L109.143 95.7835L100.559 108.29C122.486 106.347 142.645 104.92 162.716 102.661C179.758 100.768 196.124 96.3515 211.215 87.6941C240.962 70.6571 234.448 29.8502 208.911 17.9621C202.601 14.927 196.013 12.5075 189.238 10.7371C164.515 4.66058 139.376 6.14975 114.3 7.58212C92.8401 8.84412 71.3363 11.0148 51.2653 19.2115C40.8132 23.4707 30.3106 28.8153 21.6005 35.8447C-4.99673 57.2987 1.40328 93.6192 33.2771 105.974C45.7489 110.801 58.7383 110.732 71.8602 110.328C78.803 110.12 83.9028 108.959 83.9912 100.718C84.4508 100.545 84.9265 100.418 85.4113 100.339L85.3986 115.471Z" fill="black"/>
<path d="M85.3986 115.483V100.339C84.9139 100.418 84.4381 100.545 83.9785 100.718C83.8901 108.959 78.7777 110.12 71.8475 110.328C58.7256 110.732 45.7362 110.801 33.2644 105.974C1.36536 93.6192 -5.0094 57.2735 21.5879 35.8447C30.3169 28.8153 40.8195 23.4708 51.2526 19.2115C71.3236 11.0085 92.8274 8.82522 114.287 7.58214C139.351 6.12453 164.502 4.63536 189.225 10.7372C195.999 12.518 202.585 14.9481 208.892 17.9937C234.448 29.8502 240.993 70.6445 211.215 87.7194C196.124 96.3452 179.77 100.75 162.729 102.661C142.658 104.92 122.498 106.347 100.572 108.29L109.156 95.7836L107.893 94.6478L85.3986 115.483Z" fill="white"/>
</svg>
