<svg width="168" height="117" viewBox="0 0 168 117" fill="none" xmlns="http://www.w3.org/2000/svg">
<path d="M82.1852 90.4543C67.5359 90.4543 53.505 90.7319 39.4932 90.3344C32.9165 90.1514 26.3018 89.0219 19.8324 87.6905C11.7219 86.0246 6.67894 80.5097 5.37242 72.5464C3.2454 59.5226 1.1878 46.423 0.323107 33.2792C-0.88873 14.9297 9.29827 2.43585 27.7977 1.13599C45.1484 -0.0818475 62.6632 1.13599 80.1086 1.13599C95.345 1.13599 110.594 1.38208 125.818 0.814175C138.069 0.353544 147.018 4.70746 153.5 15.2326C160.98 27.373 166.755 40.0183 167.588 54.4304C168.592 71.9785 158.291 85.2233 139.545 89.817C131.403 91.8109 122.927 92.3851 114.621 93.7355C112.727 94.0384 110.556 94.417 109.193 95.5717C95.9383 106.816 80.0266 112.11 63.6416 116.325C62.0132 116.742 59.8861 115.215 57.9926 114.596C59.0277 112.893 59.6589 110.583 61.1484 109.586C69.2084 104.286 76.5615 98.3355 82.1852 90.4543ZM115.063 88.271C117.013 89.2491 118.174 90.3659 119.014 90.164C128.096 87.9997 137.734 86.9144 146.04 83.0211C158.6 77.1212 164.432 64.0342 160.904 50.6822C158.379 41.1226 153.999 31.9794 149.745 22.9813C145.327 13.6551 137.412 9.88798 127.086 10.4054C113.661 11.0869 100.211 11.699 86.7737 11.6674C75.3434 11.6295 63.9003 10.071 52.4763 10.2224C42.5228 10.3549 32.4115 11.1121 22.6853 13.1124C13.1673 15.0748 9.10262 21.0125 9.68329 30.6101C10.4154 42.7758 11.8229 54.9163 13.3819 67.0063C14.7957 78.0299 16.7965 80.699 27.8987 81.7843C44.0376 83.3555 60.3279 83.3555 76.4984 84.4787C82.7658 84.9141 87.67 84.6175 88.2254 76.8625C88.527 76.7875 88.8362 76.7473 89.1469 76.7426C90.2767 89.7349 83.3402 98.9854 73.8222 108.192C90.6112 104.57 104.61 98.6384 115.063 88.271V88.271Z" fill="black"/>
<path d="M115.062 88.2708C104.61 98.6382 90.6112 104.57 73.8664 108.179C83.3844 98.9726 90.3209 89.7221 89.1911 76.7298C88.8803 76.7345 88.5711 76.7747 88.2696 76.8497C87.7141 84.6047 82.81 84.9013 76.5425 84.4659C60.3469 83.3427 44.0565 83.3427 27.9429 81.7715C16.8218 80.6862 14.821 77.9855 13.4261 66.9934C11.8672 54.9034 10.4597 42.763 9.72751 30.5972C9.14683 20.9997 13.2115 15.062 22.7295 13.0996C32.4557 11.0993 42.567 10.3421 52.5204 10.2096C63.9445 10.0581 75.3875 11.6167 86.8179 11.6546C100.255 11.6987 113.705 11.0867 127.13 10.3926C137.456 9.87515 145.384 13.6422 149.789 22.9684C154.043 31.9665 158.43 41.1097 160.948 50.6694C164.476 64.0214 158.644 77.1084 146.084 83.0083C137.778 86.9015 128.14 87.9869 119.058 90.1512C118.174 90.3657 117.013 89.2489 115.062 88.2708Z" fill="white"/>
</svg>
