<svg width="229" height="124" viewBox="0 0 229 124" fill="none" xmlns="http://www.w3.org/2000/svg">
<path d="M112.39 98.6998C96.5735 98.6998 82.0946 99.6526 67.8113 98.4222C54.4566 97.307 41.2488 94.8463 28.3888 91.0773C7.01124 84.7105 -3.27672 66.9415 1.18561 45.3234C4.29725 30.2361 15.614 21.8123 28.6854 15.477C48.201 6.01197 69.2882 2.95793 90.5396 1.51924C116.417 -0.228633 142.295 0.65476 167.946 4.97081C183.598 7.60209 199.169 10.8328 211.894 21.4273C220.578 28.6586 227.723 36.7418 228.171 48.9643C228.588 60.2276 223.034 68.6641 215.378 75.7755C203.253 87.0389 188.32 92.7747 172.244 95.5259C164.563 96.8447 156.742 97.4189 148.966 98.1193C142.787 98.6872 137.328 99.8356 132.039 104.12C119.989 113.909 105.562 120.333 90.224 122.741C88.8417 122.968 87.3585 123.492 86.0773 123.195C84.5561 122.842 83.2054 121.757 81.779 120.987C82.8457 119.775 83.7104 118.242 85.0169 117.403C93.222 112.159 101.509 107.092 109.733 101.912C110.352 101.527 110.756 100.725 112.39 98.6998ZM141.222 96.6995C159.778 95.8919 177.198 93.7401 193.691 86.5467C202.836 82.5525 210.877 77.006 217.176 69.1374C226.884 57.0222 226.562 44.0929 216.002 32.6907C208.328 24.3994 198.999 18.5121 187.985 15.9881C145.393 6.0628 101.154 5.488 58.3186 14.3033C44.6666 17.0797 31.5446 21.5346 20.4488 30.4191C2.49213 44.787 4.17103 70.7464 24.3115 81.8079C31.8855 85.9788 40.6081 89.2096 49.1415 90.3895C69.5975 93.2101 90.2556 94.6551 110.857 96.3336C112.491 96.4661 114.688 94.4406 115.969 92.8567C117.023 91.5947 117.105 89.4872 117.617 87.7582C119.169 98.0057 113.413 104.934 107.108 111.736C122.818 105.252 137.005 95.5663 148.764 83.2971L141.222 96.6995Z" fill="black"/>
<path d="M141.222 96.699L148.796 83.2586C137.037 95.5279 122.85 105.213 107.139 111.698C113.451 104.902 119.201 97.9736 117.648 87.7198C117.137 89.4487 117.055 91.5058 116.001 92.8183C114.738 94.3832 112.523 96.4276 110.888 96.2951C90.287 94.6167 69.6289 93.1401 49.1729 90.3511C40.6396 89.1711 31.9421 85.9341 24.3429 81.7695C4.20245 70.708 2.52355 44.7486 20.4802 30.3807C31.5697 21.4962 44.6917 17.0413 58.3501 14.2649C101.178 5.46662 145.406 6.05432 187.985 15.9875C199.03 18.5115 208.359 24.4303 216.034 32.7217C226.593 44.1239 226.915 57.0531 217.208 69.1684C210.896 77.0369 202.868 82.5835 193.722 86.5777C177.255 93.7396 159.778 95.8913 141.222 96.699Z" fill="white"/>
</svg>
