<svg width="244" height="114" viewBox="0 0 244 114" fill="none" xmlns="http://www.w3.org/2000/svg">
<path d="M96.2618 92.4812C81.6693 93.3141 68.1308 94.2165 54.605 94.8285C41.1486 95.4595 28.235 93.4151 16.2933 86.5877C0.993894 77.8357 -3.90394 61.6505 3.82782 45.7871C11.7552 29.5009 25.7103 20.4019 41.6977 14.0666C70.7313 2.54453 101.254 -0.686203 132.156 0.474841C149.545 1.10584 166.94 3.25125 184.196 5.66168C198.984 7.67204 213.116 13.0425 225.505 21.361C238.318 29.9868 244.851 42.2409 243.809 57.7446C242.635 74.7816 233.079 86.5119 217.931 93.3646C194.787 103.839 170.398 103.593 145.821 100.375C144.627 100.226 143.448 99.9702 142.299 99.6115C134.094 96.9992 126.867 98.1981 119.097 102.609C106.878 109.675 93.0911 113.589 78.9806 113.998C76.7967 114.049 74.5624 112.484 72.366 111.664C74.0764 110.124 75.5217 107.878 77.5352 107.152C84.9829 104.338 90.7265 99.4475 96.2618 92.4812ZM139.011 89.9572C150.706 93.5918 173.952 94.7276 187.686 92.8346C199.533 91.2066 211.039 88.7205 221.138 81.8867C239.309 69.538 241.335 44.4304 224.041 31.0027C215.318 24.2888 205.358 19.3574 194.73 16.4897C148.819 4.36182 102.58 4.27347 56.6058 16.4897C40.1261 20.8688 24.814 27.9991 13.9706 42.0642C1.07591 58.792 4.95123 74.8195 23.9619 83.8554C35.4112 89.2947 47.6495 89.484 59.9383 89.1811C72.3849 88.8719 84.8314 88.6447 97.2654 88.0705C99.0831 87.9885 101.343 86.594 102.491 85.1048C105.559 81.1295 108.172 76.7756 110.917 72.5668C108.879 85.4014 101.589 95.1756 91.7743 104.849C115.582 100.217 132.907 86.2848 151.558 74.2326L139.011 89.9572Z" fill="black"/>
<path d="M139.011 89.9825L151.546 74.2768C132.895 86.329 115.569 100.262 91.7616 104.893C101.576 95.2198 108.866 85.4456 110.905 72.611C108.128 76.8198 105.546 81.1737 102.479 85.149C101.33 86.6382 99.0705 88.0327 97.2527 88.1147C84.8188 88.6889 72.3723 88.9161 59.9257 89.2253C47.6243 89.5282 35.3861 89.3389 23.9493 83.8996C4.93867 74.8637 1.06327 58.8362 13.958 42.1084C24.8014 28.0433 40.1135 20.913 56.5932 16.5339C102.561 4.29875 148.806 4.38709 194.717 16.5339C205.346 19.4016 215.305 24.333 224.028 31.0469C241.297 44.4746 239.296 69.5822 221.125 81.9309C211.058 88.7647 199.546 91.2508 187.673 92.8788C173.977 94.7529 150.706 93.6108 139.011 89.9825Z" fill="white"/>
</svg>
