<svg width="159" height="154" viewBox="0 0 159 154" fill="none" xmlns="http://www.w3.org/2000/svg">
<path d="M102.893 130.368C82.0649 138.71 62.4987 139.745 42.9326 132.974C21.3468 125.491 5.2079 112.113 1.27574 88.3245C-1.24892 73.2436 3.4217 59.2101 11.57 46.5711C23.6127 27.8808 39.638 13.8852 60.6116 5.6128C90.0554 -6.00395 126.612 4.9818 144.695 31.0359C155.343 46.3755 160.714 62.7752 156.934 81.516C153.538 98.37 142.909 109.911 129.446 119.534C126.921 121.348 124.876 123.75 123.488 126.532C118.641 136.779 111.288 144.887 102.603 151.81C100.956 153.122 98.0396 152.838 95.7106 153.292C96.0136 151.141 95.9947 148.875 96.6826 146.856C98.3805 141.802 100.419 136.855 102.893 130.368ZM127.288 115.319C143.067 106.56 153.639 89.0628 153.866 72.1456C154.396 32.2663 114.368 -0.829724 75.3682 8.08633C45.249 14.9706 24.7298 34.153 12.8829 62.2704C4.52625 82.1028 9.68917 100.497 26.5602 113.949C46.8206 130.109 70.2116 131.769 94.5304 127.201C104.522 125.308 103.556 126.853 103.569 115.603C103.624 115.139 103.734 114.684 103.897 114.246L105.513 114.208C106.018 121.723 106.523 129.239 107.128 138.268C114.488 127.137 121.374 116.745 128.676 105.702C128.184 109.11 127.793 111.829 127.288 115.319Z" fill="black"/>
<path d="M127.288 115.319C127.793 111.83 128.184 109.11 128.67 105.722C121.367 116.764 114.481 127.176 107.122 138.288C106.491 129.258 106.011 121.743 105.506 114.228L103.89 114.266C103.728 114.703 103.618 115.159 103.562 115.622C103.562 126.873 104.515 125.346 94.524 127.22C70.2052 131.77 46.8142 130.11 26.5539 113.969C9.68284 100.516 4.51991 82.1224 12.8765 62.2901C24.7298 34.1726 45.2489 14.9649 75.3618 8.10595C114.361 -0.810109 154.39 32.2859 153.86 72.1652C153.639 89.0635 143.042 106.561 127.288 115.319Z" fill="white"/>
<path d="M127.288 115.319C127.793 111.83 128.184 109.11 128.67 105.722C121.367 116.764 114.481 127.176 107.122 138.288C106.491 129.258 106.011 121.743 105.506 114.228L103.89 114.266C103.728 114.703 103.618 115.159 103.562 115.622C103.562 126.873 104.515 125.346 94.524 127.22C70.2052 131.77 46.8142 130.11 26.5539 113.969C9.68284 100.516 4.51991 82.1224 12.8765 62.2901C24.7298 34.1726 45.2489 14.9649 75.3618 8.10595C114.361 -0.810109 154.39 32.2859 153.86 72.1652C153.639 89.0635 143.042 106.561 127.288 115.319Z" fill="white"/>
</svg>
