<svg width="230" height="123" viewBox="0 0 230 123" fill="none" xmlns="http://www.w3.org/2000/svg">
<path d="M101.302 99.4367C81.6539 98.6984 61.9995 98.0107 42.3576 97.203C35.1371 96.9127 27.9102 96.572 20.7276 95.8716C8.14216 94.6096 -0.283855 85.5736 0.00648089 72.8148C0.391491 56.1689 1.14892 39.5105 2.40494 22.9088C3.45267 9.18452 9.85263 3.78946 23.6562 3.82732C44.9391 3.8778 66.2283 4.54035 87.4922 4.07341C117.573 3.44241 147.636 1.77025 177.711 0.96888C189.141 0.680467 200.579 1.03017 211.97 2.01634C222.126 2.87451 226.001 7.98562 226.487 17.7914C227.276 34.1974 228.627 50.5151 229.22 66.896C229.48 73.6876 228.97 80.4869 227.699 87.1637C225.458 98.6858 215.707 106.094 202.642 108.1C185.108 110.782 167.821 108.182 150.47 106.416C144.48 105.785 138.433 104.586 132.513 105.015C128.89 105.286 125.514 108.296 121.929 109.861C112.461 114.007 102.937 118.159 93.3052 121.976C91.9166 122.525 89.7959 121.232 88.016 120.784C88.5967 119.061 88.7482 116.997 89.8212 115.666C93.7976 110.738 98.0831 106.056 102.249 101.286L101.302 99.4367ZM136.117 99.809C141.413 100.44 146.121 101.248 150.867 101.469C167.057 102.226 183.309 103.892 199.467 103.084C216.938 102.207 223.849 93.1393 223.918 72.6696C223.975 55.8534 218.56 39.5483 220.46 22.4671C221.722 10.9513 218.711 8.12444 206.776 8.02348C188.535 7.87204 170.282 8.83116 152.035 9.1719C109.861 9.96276 67.6884 10.701 25.5182 11.3867C14.0752 11.576 11.6767 13.5195 10.8941 24.8144C10.0231 37.4345 9.44242 50.0545 8.71658 62.6745C7.5868 82.4375 11.7588 86.7725 31.5647 87.6181C53.6555 88.5646 75.7462 89.3218 97.6855 91.4861C105.329 92.237 108.826 90.8551 109.974 83.567C109.974 83.4156 110.473 83.3399 110.738 83.2263L112.436 83.8888C108.794 93.5747 105.152 103.254 101.485 113.016C119.631 107.059 133.289 93.1141 149.984 83.5733L136.117 99.809Z" fill="black"/>
<path d="M136.117 99.8085L149.952 83.598C133.258 93.1388 119.599 107.084 101.453 113.041C105.121 103.279 108.762 93.5994 112.404 83.9135L110.706 83.251C110.441 83.3645 109.968 83.4403 109.943 83.5917C108.794 90.8861 105.297 92.2617 97.6539 91.5108C75.702 89.3464 53.5923 88.5892 31.533 87.6427C11.7271 86.7972 7.54883 82.4622 8.68492 62.6992C9.41076 50.0792 9.9914 37.4592 10.8624 24.8391C11.6451 13.5442 14.0183 11.5881 25.4865 11.4114C67.6567 10.7257 109.829 9.98743 152.003 9.19658C170.263 8.83059 188.504 7.87147 206.744 8.02291C218.68 8.12387 221.703 10.9508 220.428 22.4665C218.535 39.5478 223.944 55.8529 223.887 72.6691C223.817 93.1388 216.906 102.206 199.435 103.083C183.309 103.891 167.057 102.225 150.836 101.468C146.121 101.247 141.413 100.421 136.117 99.8085Z" fill="white"/>
</svg>
